<?xml version="1.0" encoding="utf-8"?>
<!-- Generator: Adobe Illustrator 26.3.1, SVG Export Plug-In . SVG Version: 6.00 Build 0)  -->
<svg version="1.1" id="Layer_1" xmlns="http://www.w3.org/2000/svg" xmlns:xlink="http://www.w3.org/1999/xlink" x="0px" y="0px"
	 viewBox="0 0 612 792" style="enable-background:new 0 0 612 792;" xml:space="preserve">
<style type="text/css">
	.st0{fill-rule:evenodd;clip-rule:evenodd;fill:#FFFFFF;}
	.st1{fill:none;stroke:#C00000;stroke-width:2.25;stroke-miterlimit:8;stroke-dasharray:28575,28575;}
	
		.st2{clip-path:url(#SVGID_00000011012524772651707140000005827281729995583898_);fill-rule:evenodd;clip-rule:evenodd;fill:#FFC000;}
	
		.st3{clip-path:url(#SVGID_00000011012524772651707140000005827281729995583898_);fill:none;stroke:#C00000;stroke-width:2.25;stroke-miterlimit:8;}
	.st4{clip-path:url(#SVGID_00000011012524772651707140000005827281729995583898_);}
	
		.st5{clip-path:url(#SVGID_00000056395938084689099790000012985766275395401143_);fill-rule:evenodd;clip-rule:evenodd;fill:#FFC000;}
	
		.st6{clip-path:url(#SVGID_00000056395938084689099790000012985766275395401143_);fill:none;stroke:#C00000;stroke-width:2.25;stroke-miterlimit:8;}
	.st7{clip-path:url(#SVGID_00000056395938084689099790000012985766275395401143_);}
	
		.st8{clip-path:url(#SVGID_00000030470516662794790300000014243520056292745379_);fill-rule:evenodd;clip-rule:evenodd;fill:#FFFFFF;}
	
		.st9{clip-path:url(#SVGID_00000030470516662794790300000014243520056292745379_);fill:none;stroke:#C00000;stroke-width:2.25;stroke-miterlimit:8;}
	.st10{clip-path:url(#SVGID_00000030470516662794790300000014243520056292745379_);}
	
		.st11{clip-path:url(#SVGID_00000004504667247298142270000009218531985132776599_);fill-rule:evenodd;clip-rule:evenodd;fill:#FFC000;}
	
		.st12{clip-path:url(#SVGID_00000004504667247298142270000009218531985132776599_);fill:none;stroke:#C00000;stroke-width:2.25;stroke-miterlimit:8;}
	.st13{clip-path:url(#SVGID_00000004504667247298142270000009218531985132776599_);}
	
		.st14{clip-path:url(#SVGID_00000164505486338036825290000009911310317437306790_);fill-rule:evenodd;clip-rule:evenodd;fill:#FFFFFF;}
	
		.st15{clip-path:url(#SVGID_00000164505486338036825290000009911310317437306790_);fill:none;stroke:#C00000;stroke-width:2.25;stroke-miterlimit:8;}
	.st16{clip-path:url(#SVGID_00000164505486338036825290000009911310317437306790_);}
	
		.st17{clip-path:url(#SVGID_00000056407705411853574690000007474541980202735265_);fill-rule:evenodd;clip-rule:evenodd;fill:#FFC000;}
	
		.st18{clip-path:url(#SVGID_00000056407705411853574690000007474541980202735265_);fill:none;stroke:#C00000;stroke-width:2.25;stroke-miterlimit:8;}
	.st19{clip-path:url(#SVGID_00000056407705411853574690000007474541980202735265_);}
	.st20{clip-path:url(#SVGID_00000002382970607755514900000013001931282545668516_);}
	.st21{clip-path:url(#SVGID_00000153667238550920340480000004134275020882339476_);}
	.st22{font-family:'Calibri';}
	.st23{font-size:13.6165px;}
	.st24{clip-path:url(#SVGID_00000120534171483099864780000007346598352447578254_);}
	.st25{clip-path:url(#SVGID_00000020368569699602216420000016624382362698554527_);}
	.st26{clip-path:url(#SVGID_00000088827162762709632290000017050127226177143228_);}
	.st27{clip-path:url(#SVGID_00000003086313904644801160000008477131857316605371_);}
	.st28{clip-path:url(#SVGID_00000121997597400703987750000006869526992083747744_);}
	.st29{clip-path:url(#SVGID_00000182493927749410211510000010577596820516072086_);}
	.st30{clip-path:url(#SVGID_00000116222130098528934920000017728502620032310177_);}
	.st31{clip-path:url(#SVGID_00000108297988694136174210000001961205896965562789_);}
	.st32{font-family:'TimesNewRomanPS-ItalicMT';}
	.st33{font-size:24.9864px;}
	.st34{clip-path:url(#SVGID_00000093145971901641070300000012278617770099425211_);}
	.st35{clip-path:url(#SVGID_00000081623019134775540210000014090288858278354584_);}
	.st36{clip-path:url(#SVGID_00000091696228591749855760000006442735494879472550_);}
	.st37{clip-path:url(#SVGID_00000104682788423226214180000001032645283016533424_);}
	.st38{clip-path:url(#SVGID_00000036242507805462745440000001157991178707549325_);}
	.st39{clip-path:url(#SVGID_00000033335935828767390680000015534187421670055576_);}
	.st40{clip-path:url(#SVGID_00000155849263458421421790000008853274001094608009_);}
	.st41{clip-path:url(#SVGID_00000044163567641679163180000017846588179143743666_);}
	.st42{clip-path:url(#SVGID_00000090290443596390778860000007046125077277961102_);}
	.st43{clip-path:url(#SVGID_00000139295940912127284930000010577387703062394274_);}
	.st44{clip-path:url(#SVGID_00000101088458791167187230000007932137849238098305_);}
	.st45{clip-path:url(#SVGID_00000104708522508800107700000006960418686948880312_);}
	.st46{clip-path:url(#SVGID_00000010313036743974158410000014374502224832174980_);}
	.st47{clip-path:url(#SVGID_00000136372214341688589250000003605841030670661778_);}
	
		.st48{clip-path:url(#SVGID_00000042706453392614439280000012894108947615685811_);fill:none;stroke:#C00000;stroke-width:2.25;stroke-miterlimit:8;stroke-dasharray:28575,28575;}
	.st49{clip-path:url(#SVGID_00000042706453392614439280000012894108947615685811_);}
	
		.st50{clip-path:url(#SVGID_00000109736022871319760060000007350176339594947249_);fill:none;stroke:#C00000;stroke-width:2.25;stroke-miterlimit:8;stroke-dasharray:28575,28575;}
	.st51{clip-path:url(#SVGID_00000109736022871319760060000007350176339594947249_);}
	
		.st52{clip-path:url(#SVGID_00000024694631476413622640000005462707914390700726_);fill:none;stroke:#C00000;stroke-width:2.25;stroke-miterlimit:8;stroke-dasharray:28575,28575;}
	.st53{clip-path:url(#SVGID_00000024694631476413622640000005462707914390700726_);}
	
		.st54{clip-path:url(#SVGID_00000036958896882937730740000005079772504865372297_);fill:none;stroke:#C00000;stroke-width:2.25;stroke-miterlimit:8;stroke-dasharray:28575,28575;}
</style>
<path class="st0" d="M170.4,438.6c6.6,0,12.7,2,17.8,5.4l0.2,0.1l0.2-0.1c5.1-3.4,11.2-5.4,17.8-5.4c17.6,0,31.9,14.3,31.9,31.9
	c0,17.6-14.3,31.9-31.9,31.9c-6.6,0-12.7-2-17.8-5.4l-0.2-0.1l-0.2,0.1c-5.1,3.4-11.2,5.4-17.8,5.4c-17.6,0-31.9-14.3-31.9-31.9
	C138.6,452.8,152.8,438.6,170.4,438.6L170.4,438.6z"/>
<path class="st1" d="M170.4,438.6c6.6,0,12.7,2,17.8,5.4l0.2,0.1l0.2-0.1c5.1-3.4,11.2-5.4,17.8-5.4c17.6,0,31.9,14.3,31.9,31.9
	c0,17.6-14.3,31.9-31.9,31.9c-6.6,0-12.7-2-17.8-5.4l-0.2-0.1l-0.2,0.1c-5.1,3.4-11.2,5.4-17.8,5.4c-17.6,0-31.9-14.3-31.9-31.9
	C138.6,452.8,152.8,438.6,170.4,438.6L170.4,438.6z"/>
<g>
	<defs>
		<polygon id="SVGID_1_" points="137.9,503 435.3,503 435.3,321.9 137.9,321.9 137.9,503 		"/>
	</defs>
	<clipPath id="SVGID_00000134937776727629960430000008686553090581675673_">
		<use xlink:href="#SVGID_1_"  style="overflow:visible;"/>
	</clipPath>
	
		<path style="clip-path:url(#SVGID_00000134937776727629960430000008686553090581675673_);fill-rule:evenodd;clip-rule:evenodd;fill:#FFC000;" d="
		M366.6,438.6c6.6,0,12.7,2,17.8,5.4l0.2,0.1l0.2-0.1c5.1-3.4,11.2-5.4,17.8-5.4c17.6,0,31.9,14.3,31.9,31.9
		c0,17.6-14.3,31.9-31.9,31.9c-6.6,0-12.7-2-17.8-5.4l-0.2-0.1l-0.2,0.1c-5.1,3.4-11.2,5.4-17.8,5.4c-17.6,0-31.9-14.3-31.9-31.9
		C334.7,452.8,349,438.6,366.6,438.6L366.6,438.6z"/>
	
		<path style="clip-path:url(#SVGID_00000134937776727629960430000008686553090581675673_);fill:none;stroke:#C00000;stroke-width:2.25;stroke-miterlimit:8;" d="
		M366.6,438.6c6.6,0,12.7,2,17.8,5.4l0.2,0.1l0.2-0.1c5.1-3.4,11.2-5.4,17.8-5.4c17.6,0,31.9,14.3,31.9,31.9
		c0,17.6-14.3,31.9-31.9,31.9c-6.6,0-12.7-2-17.8-5.4l-0.2-0.1l-0.2,0.1c-5.1,3.4-11.2,5.4-17.8,5.4c-17.6,0-31.9-14.3-31.9-31.9
		C334.7,452.8,349,438.6,366.6,438.6L366.6,438.6z"/>
	<g style="clip-path:url(#SVGID_00000134937776727629960430000008686553090581675673_);">
		<defs>
			<polygon id="SVGID_00000133500771307738452370000014273260390081173940_" points="137.9,503 435.3,503 435.3,321.9 137.9,321.9 
				137.9,503 			"/>
		</defs>
		<clipPath id="SVGID_00000080906521759819100900000017740083104969676446_">
			<use xlink:href="#SVGID_00000133500771307738452370000014273260390081173940_"  style="overflow:visible;"/>
		</clipPath>
		
			<path style="clip-path:url(#SVGID_00000080906521759819100900000017740083104969676446_);fill-rule:evenodd;clip-rule:evenodd;fill:#FFC000;" d="
			M188.4,444.1l4.6,3.8c5.8,5.8,9.3,13.7,9.3,22.6c0,8.8-3.6,16.8-9.3,22.6l-4.6,3.8l-4.6-3.8c-5.8-5.8-9.3-13.7-9.3-22.6
			c0-8.8,3.6-16.8,9.3-22.6L188.4,444.1z"/>
		
			<path style="clip-path:url(#SVGID_00000080906521759819100900000017740083104969676446_);fill:none;stroke:#C00000;stroke-width:2.25;stroke-miterlimit:8;" d="
			M188.4,444.1l4.6,3.8c5.8,5.8,9.3,13.7,9.3,22.6c0,8.8-3.6,16.8-9.3,22.6l-4.6,3.8l-4.6-3.8c-5.8-5.8-9.3-13.7-9.3-22.6
			c0-8.8,3.6-16.8,9.3-22.6L188.4,444.1z"/>
		<g style="clip-path:url(#SVGID_00000080906521759819100900000017740083104969676446_);">
			<defs>
				<polygon id="SVGID_00000041296406520440398910000001829212019877275315_" points="137.9,503 435.3,503 435.3,321.9 137.9,321.9 
					137.9,503 				"/>
			</defs>
			<clipPath id="SVGID_00000153672320355267261110000017455864324811163786_">
				<use xlink:href="#SVGID_00000041296406520440398910000001829212019877275315_"  style="overflow:visible;"/>
			</clipPath>
			
				<path style="clip-path:url(#SVGID_00000153672320355267261110000017455864324811163786_);fill-rule:evenodd;clip-rule:evenodd;fill:#FFFFFF;" d="
				M174.5,380.4c0-17.6,14.3-31.9,31.9-31.9s31.9,14.3,31.9,31.9c0,17.6-14.3,31.9-31.9,31.9S174.5,398,174.5,380.4L174.5,380.4z"/>
			
				<path style="clip-path:url(#SVGID_00000153672320355267261110000017455864324811163786_);fill:none;stroke:#C00000;stroke-width:2.25;stroke-miterlimit:8;" d="
				M174.5,380.4c0-17.6,14.3-31.9,31.9-31.9s31.9,14.3,31.9,31.9c0,17.6-14.3,31.9-31.9,31.9S174.5,398,174.5,380.4L174.5,380.4z"/>
			<g style="clip-path:url(#SVGID_00000153672320355267261110000017455864324811163786_);">
				<defs>
					<polygon id="SVGID_00000093867543527302793200000005102389345962955689_" points="137.9,503 435.3,503 435.3,321.9 
						137.9,321.9 137.9,503 					"/>
				</defs>
				<clipPath id="SVGID_00000075164711614594117600000010130488136560272319_">
					<use xlink:href="#SVGID_00000093867543527302793200000005102389345962955689_"  style="overflow:visible;"/>
				</clipPath>
				
					<path style="clip-path:url(#SVGID_00000075164711614594117600000010130488136560272319_);fill-rule:evenodd;clip-rule:evenodd;fill:#FFC000;" d="
					M138.6,380.4c0-17.6,14.3-31.9,31.9-31.9s31.9,14.3,31.9,31.9c0,17.6-14.3,31.9-31.9,31.9S138.6,398,138.6,380.4L138.6,380.4z"
					/>
				
					<path style="clip-path:url(#SVGID_00000075164711614594117600000010130488136560272319_);fill:none;stroke:#C00000;stroke-width:2.25;stroke-miterlimit:8;" d="
					M138.6,380.4c0-17.6,14.3-31.9,31.9-31.9s31.9,14.3,31.9,31.9c0,17.6-14.3,31.9-31.9,31.9S138.6,398,138.6,380.4L138.6,380.4z"
					/>
				<g style="clip-path:url(#SVGID_00000075164711614594117600000010130488136560272319_);">
					<defs>
						<polygon id="SVGID_00000025434611764989178830000016734911098168820911_" points="137.9,503 435.3,503 435.3,321.9 
							137.9,321.9 137.9,503 						"/>
					</defs>
					<clipPath id="SVGID_00000096752115629020243610000008644014098020463782_">
						<use xlink:href="#SVGID_00000025434611764989178830000016734911098168820911_"  style="overflow:visible;"/>
					</clipPath>
					
						<path style="clip-path:url(#SVGID_00000096752115629020243610000008644014098020463782_);fill-rule:evenodd;clip-rule:evenodd;fill:#FFFFFF;" d="
						M334.7,380.4c0-17.6,14.3-31.9,31.9-31.9s31.9,14.3,31.9,31.9c0,17.6-14.3,31.9-31.9,31.9S334.7,398,334.7,380.4L334.7,380.4z"
						/>
					
						<path style="clip-path:url(#SVGID_00000096752115629020243610000008644014098020463782_);fill:none;stroke:#C00000;stroke-width:2.25;stroke-miterlimit:8;" d="
						M334.7,380.4c0-17.6,14.3-31.9,31.9-31.9s31.9,14.3,31.9,31.9c0,17.6-14.3,31.9-31.9,31.9S334.7,398,334.7,380.4L334.7,380.4z"
						/>
					<g style="clip-path:url(#SVGID_00000096752115629020243610000008644014098020463782_);">
						<defs>
							<polygon id="SVGID_00000095316834757167098860000007017040839591880347_" points="137.9,503 435.3,503 435.3,321.9 
								137.9,321.9 137.9,503 							"/>
						</defs>
						<clipPath id="SVGID_00000031887312685553256250000006596440877112986518_">
							<use xlink:href="#SVGID_00000095316834757167098860000007017040839591880347_"  style="overflow:visible;"/>
						</clipPath>
						
							<path style="clip-path:url(#SVGID_00000031887312685553256250000006596440877112986518_);fill-rule:evenodd;clip-rule:evenodd;fill:#FFC000;" d="
							M370.7,380.4c0-17.6,14.3-31.9,31.9-31.9c17.6,0,31.9,14.3,31.9,31.9c0,17.6-14.3,31.9-31.9,31.9
							C384.9,412.3,370.7,398,370.7,380.4L370.7,380.4z"/>
						
							<path style="clip-path:url(#SVGID_00000031887312685553256250000006596440877112986518_);fill:none;stroke:#C00000;stroke-width:2.25;stroke-miterlimit:8;" d="
							M370.7,380.4c0-17.6,14.3-31.9,31.9-31.9c17.6,0,31.9,14.3,31.9,31.9c0,17.6-14.3,31.9-31.9,31.9
							C384.9,412.3,370.7,398,370.7,380.4L370.7,380.4z"/>
						<g style="clip-path:url(#SVGID_00000031887312685553256250000006596440877112986518_);">
							<defs>
								<polygon id="SVGID_00000132064017428455783180000000325034132716200846_" points="137.9,503 435.3,503 435.3,321.9 
									137.9,321.9 137.9,503 								"/>
							</defs>
							<clipPath id="SVGID_00000077286803216947915150000009451056039390068135_">
								<use xlink:href="#SVGID_00000132064017428455783180000000325034132716200846_"  style="overflow:visible;"/>
							</clipPath>
							<g style="clip-path:url(#SVGID_00000077286803216947915150000009451056039390068135_);">
								<defs>
									<rect id="SVGID_00000155842576755069312120000007273127263563443101_" x="137.9" y="321.9" width="297.4" height="181.1"/>
								</defs>
								<clipPath id="SVGID_00000132062101664763951750000010091118618882277534_">
									<use xlink:href="#SVGID_00000155842576755069312120000007273127263563443101_"  style="overflow:visible;"/>
								</clipPath>
								<g style="clip-path:url(#SVGID_00000132062101664763951750000010091118618882277534_);">
									<text transform="matrix(1 0 0 1 165.2588 338.7285)"><tspan x="0" y="0" class="st22 st23">L</tspan><tspan x="5.7" y="0" class="st22 st23">e</tspan><tspan x="12.4" y="0" class="st22 st23">ft</tspan><tspan x="20.8" y="0" class="st22 st23"> </tspan><tspan x="23.9" y="0" class="st22 st23">J</tspan><tspan x="28.3" y="0" class="st22 st23">o</tspan><tspan x="35.4" y="0" class="st22 st23">in</tspan></text>
								</g>
							</g>
							<g style="clip-path:url(#SVGID_00000077286803216947915150000009451056039390068135_);">
								<defs>
									<polygon id="SVGID_00000150812762900643385130000012666102693817108151_" points="137.9,503 435.3,503 435.3,321.9 
										137.9,321.9 137.9,503 									"/>
								</defs>
								<clipPath id="SVGID_00000112608873224881266780000000807092156913719702_">
									<use xlink:href="#SVGID_00000150812762900643385130000012666102693817108151_"  style="overflow:visible;"/>
								</clipPath>
								<g style="clip-path:url(#SVGID_00000112608873224881266780000000807092156913719702_);">
									<defs>
										
											<rect id="SVGID_00000066493363341124116560000001814289502731764111_" x="137.9" y="321.9" width="297.4" height="181.1"/>
									</defs>
									<clipPath id="SVGID_00000052790527247576111310000004775896105760447623_">
										<use xlink:href="#SVGID_00000066493363341124116560000001814289502731764111_"  style="overflow:visible;"/>
									</clipPath>
									<g style="clip-path:url(#SVGID_00000052790527247576111310000004775896105760447623_);">
										<text transform="matrix(1 0 0 1 357.6182 338.7285)"><tspan x="0" y="0" class="st22 st23">R</tspan><tspan x="7.4" y="0" class="st22 st23">ig</tspan><tspan x="17" y="0" class="st22 st23">h</tspan><tspan x="24" y="0" class="st22 st23">t</tspan><tspan x="28.5" y="0" class="st22 st23"> </tspan><tspan x="31.5" y="0" class="st22 st23">J</tspan><tspan x="35.9" y="0" class="st22 st23">o</tspan><tspan x="43" y="0" class="st22 st23">in</tspan></text>
									</g>
								</g>
								<g style="clip-path:url(#SVGID_00000112608873224881266780000000807092156913719702_);">
									<defs>
										<polygon id="SVGID_00000010311430645382386200000010005102431850084763_" points="137.9,503 435.3,503 435.3,321.9 
											137.9,321.9 137.9,503 										"/>
									</defs>
									<clipPath id="SVGID_00000065788623732840989860000015058383539826793131_">
										<use xlink:href="#SVGID_00000010311430645382386200000010005102431850084763_"  style="overflow:visible;"/>
									</clipPath>
									<g style="clip-path:url(#SVGID_00000065788623732840989860000015058383539826793131_);">
										<defs>
											
												<rect id="SVGID_00000168838513003931064960000013183017070106912385_" x="137.9" y="321.9" width="297.4" height="181.1"/>
										</defs>
										<clipPath id="SVGID_00000168100532260753880530000003703706189750152376_">
											<use xlink:href="#SVGID_00000168838513003931064960000013183017070106912385_"  style="overflow:visible;"/>
										</clipPath>
										<g style="clip-path:url(#SVGID_00000168100532260753880530000003703706189750152376_);">
											<text transform="matrix(1 0 0 1 161.2695 431.5537)"><tspan x="0" y="0" class="st22 st23">I</tspan><tspan x="3.4" y="0" class="st22 st23">nn</tspan><tspan x="17.7" y="0" class="st22 st23">e</tspan><tspan x="24.5" y="0" class="st22 st23">r</tspan><tspan x="29.3" y="0" class="st22 st23"> </tspan><tspan x="32.4" y="0" class="st22 st23">J</tspan><tspan x="36.7" y="0" class="st22 st23">o</tspan><tspan x="43.9" y="0" class="st22 st23">in</tspan></text>
										</g>
									</g>
									<g style="clip-path:url(#SVGID_00000065788623732840989860000015058383539826793131_);">
										<defs>
											<polygon id="SVGID_00000134249518607133452980000015868522522340441227_" points="137.9,503 435.3,503 435.3,321.9 
												137.9,321.9 137.9,503 											"/>
										</defs>
										<clipPath id="SVGID_00000081606702378916914600000017465439318552740750_">
											<use xlink:href="#SVGID_00000134249518607133452980000015868522522340441227_"  style="overflow:visible;"/>
										</clipPath>
										<g style="clip-path:url(#SVGID_00000081606702378916914600000017465439318552740750_);">
											<defs>
												
													<rect id="SVGID_00000176026991780717396360000000438576055736294333_" x="137.9" y="321.9" width="297.4" height="181.1"/>
											</defs>
											<clipPath id="SVGID_00000173869059757308196340000009018220200145545134_">
												<use xlink:href="#SVGID_00000176026991780717396360000000438576055736294333_"  style="overflow:visible;"/>
											</clipPath>
											<g style="clip-path:url(#SVGID_00000173869059757308196340000009018220200145545134_);">
												<text transform="matrix(1 0 0 1 355.9258 431.5537)"><tspan x="0" y="0" class="st22 st23">O</tspan><tspan x="9" y="0" class="st22 st23">u</tspan><tspan x="16.1" y="0" class="st22 st23">t</tspan><tspan x="20.6" y="0" class="st22 st23">e</tspan><tspan x="27.4" y="0" class="st22 st23">r</tspan><tspan x="32.1" y="0" class="st22 st23"> </tspan><tspan x="35.2" y="0" class="st22 st23">J</tspan><tspan x="39.6" y="0" class="st22 st23">o</tspan><tspan x="46.7" y="0" class="st22 st23">in</tspan></text>
											</g>
										</g>
										<g style="clip-path:url(#SVGID_00000081606702378916914600000017465439318552740750_);">
											<defs>
												<polygon id="SVGID_00000170266921014422956170000011105835944241561755_" points="137.9,503 435.3,503 435.3,321.9 
													137.9,321.9 137.9,503 												"/>
											</defs>
											<clipPath id="SVGID_00000147933689102244044220000014944517757024077462_">
												<use xlink:href="#SVGID_00000170266921014422956170000011105835944241561755_"  style="overflow:visible;"/>
											</clipPath>
											<g style="clip-path:url(#SVGID_00000147933689102244044220000014944517757024077462_);">
												<defs>
													
														<rect id="SVGID_00000130647274535523730710000015811680142624369302_" x="137.9" y="321.9" width="297.4" height="181.1"/>
												</defs>
												<clipPath id="SVGID_00000142885237009358789260000015488590296659054246_">
													<use xlink:href="#SVGID_00000130647274535523730710000015811680142624369302_"  style="overflow:visible;"/>
												</clipPath>
												<g style="clip-path:url(#SVGID_00000142885237009358789260000015488590296659054246_);">
													<text transform="matrix(1 0 0 1 156.0303 388.1592)" class="st32 st33">X</text>
												</g>
											</g>
											<g style="clip-path:url(#SVGID_00000147933689102244044220000014944517757024077462_);">
												<defs>
													<polygon id="SVGID_00000100380154754972863750000011620649637476876690_" points="137.9,503 435.3,503 435.3,321.9 
														137.9,321.9 137.9,503 													"/>
												</defs>
												<clipPath id="SVGID_00000176012215024434468380000014894264402317687486_">
													<use xlink:href="#SVGID_00000100380154754972863750000011620649637476876690_"  style="overflow:visible;"/>
												</clipPath>
												<g style="clip-path:url(#SVGID_00000176012215024434468380000014894264402317687486_);">
													<defs>
														
															<rect id="SVGID_00000060711669350896682530000012095939639392937918_" x="137.9" y="321.9" width="297.4" height="181.1"/>
													</defs>
													<clipPath id="SVGID_00000102526899340691282590000016972352919982930071_">
														<use xlink:href="#SVGID_00000060711669350896682530000012095939639392937918_"  style="overflow:visible;"/>
													</clipPath>
													<g style="clip-path:url(#SVGID_00000102526899340691282590000016972352919982930071_);">
														<text transform="matrix(1 0 0 1 202.7354 388.1592)" class="st32 st33">Y</text>
													</g>
												</g>
												<g style="clip-path:url(#SVGID_00000176012215024434468380000014894264402317687486_);">
													<defs>
														<polygon id="SVGID_00000118372073767750419460000005384137872617469071_" points="137.9,503 435.3,503 435.3,321.9 
															137.9,321.9 137.9,503 														"/>
													</defs>
													<clipPath id="SVGID_00000053512651453823067920000017353163862675862401_">
														<use xlink:href="#SVGID_00000118372073767750419460000005384137872617469071_"  style="overflow:visible;"/>
													</clipPath>
													<g style="clip-path:url(#SVGID_00000053512651453823067920000017353163862675862401_);">
														<defs>
															
																<rect id="SVGID_00000010283750127862754480000010146224698071670945_" x="137.9" y="321.9" width="297.4" height="181.1"/>
														</defs>
														<clipPath id="SVGID_00000157282535554643562640000013528770207947555715_">
															<use xlink:href="#SVGID_00000010283750127862754480000010146224698071670945_"  style="overflow:visible;"/>
														</clipPath>
														<g style="clip-path:url(#SVGID_00000157282535554643562640000013528770207947555715_);">
															<text transform="matrix(1 0 0 1 352.1973 388.1592)" class="st32 st33">X</text>
														</g>
													</g>
													<g style="clip-path:url(#SVGID_00000053512651453823067920000017353163862675862401_);">
														<defs>
															<polygon id="SVGID_00000136385106887039836110000009512856107130931119_" points="137.9,503 435.3,503 435.3,321.9 
																137.9,321.9 137.9,503 															"/>
														</defs>
														<clipPath id="SVGID_00000003820891102142473480000007288325428399218834_">
															<use xlink:href="#SVGID_00000136385106887039836110000009512856107130931119_"  style="overflow:visible;"/>
														</clipPath>
														<g style="clip-path:url(#SVGID_00000003820891102142473480000007288325428399218834_);">
															<defs>
																
																	<rect id="SVGID_00000091003080799256764780000011160992711112856988_" x="137.9" y="321.9" width="297.4" height="181.1"/>
															</defs>
															<clipPath id="SVGID_00000117658352137917698480000018205561137848131481_">
																<use xlink:href="#SVGID_00000091003080799256764780000011160992711112856988_"  style="overflow:visible;"/>
															</clipPath>
															<g style="clip-path:url(#SVGID_00000117658352137917698480000018205561137848131481_);">
																<text transform="matrix(1 0 0 1 396.0352 388.1592)" class="st32 st33">Y</text>
															</g>
														</g>
														<g style="clip-path:url(#SVGID_00000003820891102142473480000007288325428399218834_);">
															<defs>
																<polygon id="SVGID_00000013905953386265521450000002272623720265232290_" points="137.9,503 435.3,503 435.3,321.9 
																	137.9,321.9 137.9,503 																"/>
															</defs>
															<clipPath id="SVGID_00000059298334179840771750000005841104870919520913_">
																<use xlink:href="#SVGID_00000013905953386265521450000002272623720265232290_"  style="overflow:visible;"/>
															</clipPath>
															<g style="clip-path:url(#SVGID_00000059298334179840771750000005841104870919520913_);">
																<defs>
																	
																		<rect id="SVGID_00000118366764377032185430000002067265723760924810_" x="137.9" y="321.9" width="297.4" height="181.1"/>
																</defs>
																<clipPath id="SVGID_00000127010800493226308190000004317755505262411450_">
																	<use xlink:href="#SVGID_00000118366764377032185430000002067265723760924810_"  style="overflow:visible;"/>
																</clipPath>
																<g style="clip-path:url(#SVGID_00000127010800493226308190000004317755505262411450_);">
																	<text transform="matrix(1 0 0 1 156.0303 479.6807)" class="st32 st33">X</text>
																</g>
															</g>
															<g style="clip-path:url(#SVGID_00000059298334179840771750000005841104870919520913_);">
																<defs>
																	<polygon id="SVGID_00000002385273926632806400000002871227159255474876_" points="137.9,503 435.3,503 
																		435.3,321.9 137.9,321.9 137.9,503 																	"/>
																</defs>
																<clipPath id="SVGID_00000181787663705320565810000010914711876198594229_">
																	<use xlink:href="#SVGID_00000002385273926632806400000002871227159255474876_"  style="overflow:visible;"/>
																</clipPath>
																<g style="clip-path:url(#SVGID_00000181787663705320565810000010914711876198594229_);">
																	<defs>
																		
																			<rect id="SVGID_00000163791254759689278920000016472455354463213221_" x="137.9" y="321.9" width="297.4" height="181.1"/>
																	</defs>
																	<clipPath id="SVGID_00000011022130051408361910000012814990038175877254_">
																		<use xlink:href="#SVGID_00000163791254759689278920000016472455354463213221_"  style="overflow:visible;"/>
																	</clipPath>
																	<g style="clip-path:url(#SVGID_00000011022130051408361910000012814990038175877254_);">
																		<text transform="matrix(1 0 0 1 202.7354 479.6807)" class="st32 st33">Y</text>
																	</g>
																</g>
																<g style="clip-path:url(#SVGID_00000181787663705320565810000010914711876198594229_);">
																	<defs>
																		<polygon id="SVGID_00000034768266415226492570000004860243733200882849_" points="137.9,503 435.3,503 
																			435.3,321.9 137.9,321.9 137.9,503 																		"/>
																	</defs>
																	<clipPath id="SVGID_00000125594573813066656320000016494972392284503730_">
																		<use xlink:href="#SVGID_00000034768266415226492570000004860243733200882849_"  style="overflow:visible;"/>
																	</clipPath>
																	<g style="clip-path:url(#SVGID_00000125594573813066656320000016494972392284503730_);">
																		<defs>
																			
																				<rect id="SVGID_00000029017381792894353840000002195777437097543826_" x="137.9" y="321.9" width="297.4" height="181.1"/>
																		</defs>
																		<clipPath id="SVGID_00000168810411386246907110000011099367705109288607_">
																			<use xlink:href="#SVGID_00000029017381792894353840000002195777437097543826_"  style="overflow:visible;"/>
																		</clipPath>
																		<g style="clip-path:url(#SVGID_00000168810411386246907110000011099367705109288607_);">
																			<text transform="matrix(1 0 0 1 352.1973 479.6807)" class="st32 st33">X</text>
																		</g>
																	</g>
																	<g style="clip-path:url(#SVGID_00000125594573813066656320000016494972392284503730_);">
																		<defs>
																			<polygon id="SVGID_00000170990052981393664560000014228423081825549702_" points="137.9,503 435.3,503 
																				435.3,321.9 137.9,321.9 137.9,503 																			"/>
																		</defs>
																		<clipPath id="SVGID_00000013910453437986606760000001024590692061696648_">
																			<use xlink:href="#SVGID_00000170990052981393664560000014228423081825549702_"  style="overflow:visible;"/>
																		</clipPath>
																		<g style="clip-path:url(#SVGID_00000013910453437986606760000001024590692061696648_);">
																			<defs>
																				
																					<rect id="SVGID_00000085967978045079164490000000785677835821816470_" x="137.9" y="321.9" width="297.4" height="181.1"/>
																			</defs>
																			<clipPath id="SVGID_00000034781162317742655190000004761808972829264019_">
																				<use xlink:href="#SVGID_00000085967978045079164490000000785677835821816470_"  style="overflow:visible;"/>
																			</clipPath>
																			<g style="clip-path:url(#SVGID_00000034781162317742655190000004761808972829264019_);">
																				<text transform="matrix(1 0 0 1 396.0352 479.6807)" class="st32 st33">Y</text>
																			</g>
																		</g>
																		<g style="clip-path:url(#SVGID_00000013910453437986606760000001024590692061696648_);">
																			<defs>
																				<polygon id="SVGID_00000086687649294256631410000007392158787943009444_" points="137.9,503 435.3,503 
																					435.3,321.9 137.9,321.9 137.9,503 																				"/>
																			</defs>
																			<clipPath id="SVGID_00000121276216660671679650000011430706310524059070_">
																				<use xlink:href="#SVGID_00000086687649294256631410000007392158787943009444_"  style="overflow:visible;"/>
																			</clipPath>
																			
																				<path style="clip-path:url(#SVGID_00000121276216660671679650000011430706310524059070_);fill:none;stroke:#C00000;stroke-width:2.25;stroke-miterlimit:8;stroke-dasharray:28575,28575;" d="
																				M174.5,380.6c0-17.6,14.3-31.9,31.9-31.9s31.9,14.3,31.9,31.9c0,17.6-14.3,31.9-31.9,31.9
																				S174.5,398.2,174.5,380.6L174.5,380.6z"/>
																			<g style="clip-path:url(#SVGID_00000121276216660671679650000011430706310524059070_);">
																				<defs>
																					<polygon id="SVGID_00000118372244243920493900000007763276511821994157_" points="137.9,503 435.3,503 
																						435.3,321.9 137.9,321.9 137.9,503 																					"/>
																				</defs>
																				<clipPath id="SVGID_00000017498010334638081010000007880095531169098140_">
																					<use xlink:href="#SVGID_00000118372244243920493900000007763276511821994157_"  style="overflow:visible;"/>
																				</clipPath>
																				
																					<path style="clip-path:url(#SVGID_00000017498010334638081010000007880095531169098140_);fill:none;stroke:#C00000;stroke-width:2.25;stroke-miterlimit:8;stroke-dasharray:28575,28575;" d="
																					M334.7,380.6c0-17.6,14.3-31.9,31.9-31.9s31.9,14.3,31.9,31.9c0,17.6-14.3,31.9-31.9,31.9
																					S334.7,398.2,334.7,380.6L334.7,380.6z"/>
																				<g style="clip-path:url(#SVGID_00000017498010334638081010000007880095531169098140_);">
																					<defs>
																						<polygon id="SVGID_00000031915512961261609740000003637707825905010320_" points="137.9,503 435.3,503 
																							435.3,321.9 137.9,321.9 137.9,503 																						"/>
																					</defs>
																					<clipPath id="SVGID_00000039817302912583488670000014471683154070932865_">
																						<use xlink:href="#SVGID_00000031915512961261609740000003637707825905010320_"  style="overflow:visible;"/>
																					</clipPath>
																					
																						<path style="clip-path:url(#SVGID_00000039817302912583488670000014471683154070932865_);fill:none;stroke:#C00000;stroke-width:2.25;stroke-miterlimit:8;stroke-dasharray:28575,28575;" d="
																						M334.8,470.4c0-17.6,14.3-31.9,31.9-31.9c17.6,0,31.9,14.3,31.9,31.9c0,17.6-14.3,31.9-31.9,31.9
																						C349,502.2,334.8,488,334.8,470.4L334.8,470.4z"/>
																					<g style="clip-path:url(#SVGID_00000039817302912583488670000014471683154070932865_);">
																						<defs>
																							<polygon id="SVGID_00000098208467779226599060000006851451194575323824_" points="137.9,503 435.3,503 
																								435.3,321.9 137.9,321.9 137.9,503 																							"/>
																						</defs>
																						<clipPath id="SVGID_00000012461860012615070940000010105898219172727690_">
																							<use xlink:href="#SVGID_00000098208467779226599060000006851451194575323824_"  style="overflow:visible;"/>
																						</clipPath>
																						
																							<path style="clip-path:url(#SVGID_00000012461860012615070940000010105898219172727690_);fill:none;stroke:#C00000;stroke-width:2.25;stroke-miterlimit:8;stroke-dasharray:28575,28575;" d="
																							M370.9,470.3c0-17.6,14.3-31.9,31.9-31.9c17.6,0,31.9,14.3,31.9,31.9c0,17.6-14.3,31.9-31.9,31.9
																							C385.2,502.2,370.9,487.9,370.9,470.3L370.9,470.3z"/>
																					</g>
																				</g>
																			</g>
																		</g>
																	</g>
																</g>
															</g>
														</g>
													</g>
												</g>
											</g>
										</g>
									</g>
								</g>
							</g>
						</g>
					</g>
				</g>
			</g>
		</g>
	</g>
</g>
</svg>
